<?xml version="1.0" encoding="UTF-8" standalone="no"?>
<!-- Created with Inkscape (http://www.inkscape.org/) -->

<svg
   version="1.1"
   id="svg1"
   width="3316.9971"
   height="1467.807"
   viewBox="0 0 3316.9971 1467.807"
   sodipodi:docname="g3.svg"
   inkscape:version="1.3.2 (091e20e, 2023-11-25)"
   xmlns:inkscape="http://www.inkscape.org/namespaces/inkscape"
   xmlns:sodipodi="http://sodipodi.sourceforge.net/DTD/sodipodi-0.dtd"
   xmlns="http://www.w3.org/2000/svg"
   xmlns:svg="http://www.w3.org/2000/svg">
  <sodipodi:namedview
     id="namedview1"
     pagecolor="#ffffff"
     bordercolor="#000000"
     borderopacity="0.25"
     inkscape:showpageshadow="2"
     inkscape:pageopacity="0.0"
     inkscape:pagecheckerboard="0"
     inkscape:deskcolor="#d1d1d1"
     inkscape:zoom="0.16078408"
     inkscape:cx="1660.6122"
     inkscape:cy="733.9035"
     inkscape:window-width="1312"
     inkscape:window-height="449"
     inkscape:window-x="218"
     inkscape:window-y="38"
     inkscape:window-maximized="0"
     inkscape:current-layer="svg1" />
  <defs
     id="defs1" />
  <g
     id="g1"
     transform="matrix(-13.074482,0,0,13.564851,3466.5816,-88.389099)">
    <g
       id="g2"
       transform="matrix(-1,0,0,1,276.53334,-0.21064197)">
      <rect
         style="fill:#b7b7b7;stroke-width:1.00084"
         id="rect1"
         width="242.56705"
         height="103.34628"
         x="22.525341"
         y="6.7266812"
         rx="19.749384"
         ry="24.007645" />
      <circle
         style="fill:#ffffff;fill-opacity:1;stroke-width:0.995536"
         id="path2"
         cx="100.5"
         cy="57.5"
         r="17.5" />
      <circle
         style="fill:#ffffff;fill-opacity:1;stroke-width:0.995536"
         id="path2-0"
         cx="145.5"
         cy="57.5"
         r="17.5" />
      <circle
         style="fill:#ffffff;fill-opacity:1;stroke-width:0.995536"
         id="path2-0-1"
         cx="190.5"
         cy="57.5"
         r="17.5" />
      <path
         style="fill:#b7b7b7;fill-opacity:1"
         id="path3"
         d="M 15.89943,110.07297 28.64622,81.31053 41.393006,52.54809 59.928614,77.968354 78.464225,103.38861 47.181826,106.73079 Z"
         transform="matrix(0.68843266,-0.0562825,0.04709738,0.57608277,-4.7375274,52.417042)" />
    </g>
  </g>
  <path
     style="fill:#b7b7b7;fill-opacity:1;stroke-width:6.21952"
     d="m 12.69949,1448.3278 c 2.314646,-7.2928 33.299871,-83.3845 68.856053,-169.0926 l 64.647617,-155.8331 1.70998,-429.5362 c 1.53834,-386.42253 2.79584,-433.28187 12.52823,-466.85338 28.10815,-96.958 83.65484,-168.658913 157.90454,-203.826773 L 360.73223,3.1097606 1701.0391,1.3779971 c 858.7722,-1.10958931 1354.6147,0.4715355 1380.1316,4.4009133 106.1567,16.3472506 189.4365,101.8485596 221.3016,227.2049696 14.0534,55.28572 13.8672,876.22282 -0.2123,935.95712 -21.7289,92.1884 -82.002,173.4146 -155.1823,209.1293 l -37.3171,18.2122 -1390.063,3.2204 -1390.06298,3.2205 -155.48803,29.4299 c -85.518413,16.1864 -157.775719,29.4308 -160.571786,29.432 -2.796068,0 -3.189959,-5.9646 -0.875314,-13.2575 z M 1244.2535,913.60475 c 55.4428,-20.74378 95.0382,-57.10192 124.0412,-113.89952 23.9988,-46.99787 24.8711,-50.83513 24.6804,-108.57182 -0.2534,-76.75754 -15.2182,-117.08829 -62.3257,-167.96995 -118.486,-127.97906 -324.2961,-82.52345 -383.22855,84.64059 -18.02815,51.13768 -14.23207,133.6428 8.41171,182.82155 27.69068,60.13972 76.01284,104.79962 136.18534,125.86389 40.7181,14.25402 109.9338,12.94239 152.2356,-2.88474 z m 601.3941,-4.03417 c 40.1178,-18.00937 92.3686,-68.87249 112.0564,-109.08014 55.5642,-113.47684 20.3987,-249.71005 -81.1353,-314.32401 -140.6657,-89.51638 -319.4502,-8.06979 -350.6421,159.73757 -20.9309,112.60486 41.9115,225.93623 149.3134,269.27541 40.049,16.16068 128.3912,13.25293 170.4076,-5.60883 z m 600.6203,-7.56847 c 45.5057,-24.34663 80.8355,-61.73882 105.2098,-111.35176 15.4545,-31.45697 17.1846,-41.55324 17.1846,-100.2835 0,-60.14886 -1.5197,-68.49683 -19.2467,-105.73186 -24.48,-51.41958 -63.1323,-90.04888 -114.473,-114.40513 -35.3081,-16.75027 -47.1208,-19.17868 -93.2929,-19.17868 -46.3705,0 -57.8329,2.37982 -93.2928,19.36932 -51.5265,24.68735 -89.8922,62.99535 -114.3865,114.21449 -17.837,37.29816 -19.3332,45.481 -19.3332,105.73186 0,58.49771 1.7647,68.89489 16.9294,99.74415 46.2397,94.06435 118.2369,138.31126 219.4124,134.84326 49.7298,-1.70459 60.3624,-4.26566 95.2889,-22.95215 z"
     id="path1" />
  <path
     style="fill:#b7b7b7;fill-opacity:1;stroke-width:6.21952"
     d="m 12.733243,1448.2215 c 2.33321,-7.3513 32.608748,-80.8194 67.278976,-163.2624 l 63.036771,-149.8965 3.69155,-435.36646 c 2.689,-317.13053 5.80673,-443.81191 11.48004,-466.46409 C 181.82059,139.0029 242.85356,58.942172 318.34591,23.185747 L 360.73223,3.1097606 1701.0391,1.3779971 c 858.7722,-1.10958931 1354.6147,0.4715355 1380.1316,4.4009133 84.7185,13.0459506 151.9571,66.1821756 193.3769,152.8188796 13.0833,27.36589 26.8387,64.58755 30.5676,82.71479 4.5135,21.94106 6.7491,175.79366 6.6879,460.24456 -0.1013,470.86886 0.046,468.80176 -38.9939,548.11156 -25.5025,51.809 -77.4103,104.8191 -125.7315,128.4016 l -37.3171,18.2122 -1390.063,3.2103 -1390.06298,3.2102 -154.71176,29.4423 c -85.091479,16.1932 -157.348782,29.4422 -160.571794,29.4422 -3.223012,0 -3.951033,-6.0147 -1.617823,-13.366 z M 1260.8235,906.59181 c 45.6683,-20.97845 88.8361,-65.5045 113.1525,-116.71262 17.4055,-36.65468 19.1606,-45.94005 18.8093,-99.51234 -0.3015,-45.9788 -3.5032,-67.01378 -14.433,-94.82691 -19.555,-49.76117 -66.0249,-98.82139 -117.7006,-124.26124 -37.1084,-18.26842 -46.8163,-20.34057 -94.3607,-20.14137 -41.3837,0.17337 -59.811,3.30348 -84.0943,14.28444 -70.161,31.72698 -108.46162,72.50532 -133.71057,142.36042 -11.64568,32.2196 -13.54201,47.83365 -11.33054,93.29281 5.10467,104.93179 60.49007,180.34025 159.62081,217.3273 37.4003,13.95456 121.0723,7.93064 164.0471,-11.81049 z m 590.7614,-0.48251 c 89.2008,-43.64195 145.8197,-153.67318 129.9101,-252.463 -16.2387,-100.83308 -80.037,-172.74211 -174.7965,-197.01836 -126.5052,-32.40913 -252.2927,51.55105 -279.8828,186.81518 -14.9061,73.07912 6.4128,150.02381 56.8603,205.22143 55.7008,60.94547 98.151,78.89102 180.0611,76.11954 43.0301,-1.45593 60.0479,-5.07363 87.8478,-18.67479 z m 590.9522,-2.95241 c 47.8258,-23.55407 83.3944,-60.34285 108.7751,-112.50654 15.1947,-31.22908 17.0368,-41.97878 17.1846,-100.2835 0.1471,-58.03397 -1.6904,-69.26456 -16.5032,-100.86859 -23.2758,-49.66036 -66.9506,-94.1453 -116.2672,-118.42376 -36.5793,-18.00794 -46.6047,-20.14484 -93.9459,-20.02455 -44.1282,0.11212 -58.9479,2.90145 -88.5604,16.66866 -49.5682,23.04497 -94.1036,66.72694 -118.4237,116.15446 -18.9092,38.4307 -20.1489,45.027 -19.9937,106.38494 0.1473,58.18282 2.0187,69.22079 16.9295,99.85299 45.0335,92.51519 118.7098,137.82533 219.3943,134.92529 42.1318,-1.21355 56.368,-4.62104 91.4106,-21.8794 z"
     id="path4" />
</svg>
