<?xml version="1.0" encoding="UTF-8" standalone="no"?>
<!-- Created with Inkscape (http://www.inkscape.org/) -->

<svg
   version="1.1"
   id="svg1"
   width="3500"
   height="3500"
   viewBox="0 0 3500 3500"
   sodipodi:docname="path2.svg"
   inkscape:export-filename="path2.png"
   inkscape:export-xdpi="9043.6592"
   inkscape:export-ydpi="9043.6592"
   inkscape:version="1.3.2 (091e20e, 2023-11-25)"
   xmlns:inkscape="http://www.inkscape.org/namespaces/inkscape"
   xmlns:sodipodi="http://sodipodi.sourceforge.net/DTD/sodipodi-0.dtd"
   xmlns="http://www.w3.org/2000/svg"
   xmlns:svg="http://www.w3.org/2000/svg">
  <sodipodi:namedview
     id="namedview1"
     pagecolor="#ffffff"
     bordercolor="#000000"
     borderopacity="0.25"
     inkscape:showpageshadow="2"
     inkscape:pageopacity="0.0"
     inkscape:pagecheckerboard="0"
     inkscape:deskcolor="#d1d1d1"
     inkscape:zoom="0.1733407"
     inkscape:cx="1621.085"
     inkscape:cy="1442.2464"
     inkscape:window-width="1488"
     inkscape:window-height="921"
     inkscape:window-x="218"
     inkscape:window-y="38"
     inkscape:window-maximized="0"
     inkscape:current-layer="svg1" />
  <defs
     id="defs1" />
  <path
     style="fill:#76ccab;fill-opacity:1;stroke-width:3.3674"
     d="m 3474.6936,999.61082 c 0,-2.6942 -16.7878,-40.2673 -37.3062,-83.4958 l -37.3062,-78.5973 -3.0248,-268.04339 c -3.0018,-266.0087 -6.3508,-366.5977 -13.4984,-405.4374 -4.1257,-22.4185 -25.4045,-70.670405 -39.0614,-88.575505 -11.258,-14.7599 -37.703,-26.888 -71.4902,-32.7864 -70.8988,-12.3773 -247.0938,-14.0115 -1969.5395,-18.2668 l -1115.54546,-2.756 -26.7026,14.3962 C 95.334937,71.568325 55.591542,115.42123 43.348342,166.10673 c -8.8422,36.6057 -12.8437,365.6311 -6.7527,555.2356 3.2404,100.86539 6.5196,124.76389 21.0075,153.10349 11.3277,22.1577 42.030595,57.5881 61.559598,71.0383 31.7967,21.8992 30.4233,21.775 277.7239,25.1118 350.9062,4.7347 1649.17406,10.2567 2336.97816,9.94 l 624.6534,-0.2876 45.4599,9.8635 c 68.7217,14.91078 70.7155,15.17858 70.7155,9.499 z"
     id="path3" />
</svg>
